<?xml version="1.0" encoding="UTF-8" standalone="no"?>
<!DOCTYPE svg PUBLIC "-//W3C//DTD SVG 1.1//EN" "http://www.w3.org/Graphics/SVG/1.1/DTD/svg11.dtd">
<svg width="100%" height="100%" viewBox="0 0 300 300" version="1.1" xmlns="http://www.w3.org/2000/svg" xmlns:xlink="http://www.w3.org/1999/xlink" xml:space="preserve" xmlns:serif="http://www.serif.com/" style="fill-rule:evenodd;clip-rule:evenodd;stroke-linejoin:round;stroke-miterlimit:2;">
    <g id="homey_warning.svg" transform="matrix(2.08333,0,0,2.08333,240,240)">
        <g transform="matrix(1,0,0,1,-24,-24)">
            <clipPath id="_clip1">
                <rect x="0" y="0" width="48" height="48"/>
            </clipPath>
            <g clip-path="url(#_clip1)">
                <path d="M47.498,41.406L27.831,2.41C27.123,0.94 25.629,0.001 23.998,0.001C22.366,0.001 20.872,0.94 20.164,2.41L0.5,41.406C-1.01,44.403 1.08,48 4.334,48L43.668,48C46.918,47.996 49.012,44.403 47.498,41.406ZM21.871,16.106C21.871,14.841 22.856,13.816 24.072,13.816C25.288,13.816 26.273,14.841 26.273,16.106L26.273,29.249C26.273,30.513 25.288,31.539 24.073,31.539C22.856,31.539 21.871,30.513 21.871,29.249L21.871,16.106ZM24,41.328C22.246,41.328 20.823,39.848 20.823,38.024C20.823,36.199 22.246,34.72 24,34.72C25.754,34.72 27.177,36.199 27.177,38.024C27.177,39.849 25.754,41.328 24,41.328Z" style="fill:rgb(49,49,50);"/>
            </g>
        </g>
    </g>
    <g transform="matrix(10,0,0,10,-10,-10)">
        <path d="M17,19L17,22L15,22L15,19C15,17.9 14.1,17 13,17L10,17C7.2,17 5,14.8 5,12C5,10.8 5.4,9.8 6.1,8.9C3.8,8.5 2,6.4 2,4C2,3.3 2.2,2.6 2.4,2L4.8,2C4.3,2.5 4,3.2 4,4C4,5.7 5.3,7 7,7L10,7L10,9C8.3,9 7,10.3 7,12C7,13.7 8.3,15 10,15L13,15C15.2,15 17,16.8 17,19M17.9,8.9C20.2,8.5 22,6.4 22,4C22,3.3 21.8,2.6 21.6,2L19.2,2C19.7,2.5 20,3.2 20,4C20,5.7 18.7,7 17,7L15.8,7C15.9,7.3 16,7.6 16,8C16,9.7 14.7,11 13,11L13,13C15.8,13 18,15.2 18,18L18,22L20,22L20,18C20,15.3 18.5,13 16.2,11.8C17.1,11.1 17.7,10.1 17.9,8.9Z" style="fill-rule:nonzero;"/>
    </g>
</svg>
