<?xml version="1.0" encoding="UTF-8" standalone="no"?>
<!DOCTYPE svg PUBLIC "-//W3C//DTD SVG 1.1//EN" "http://www.w3.org/Graphics/SVG/1.1/DTD/svg11.dtd">
<svg width="100%" height="100%" viewBox="0 0 300 300" version="1.1" xmlns="http://www.w3.org/2000/svg" xmlns:xlink="http://www.w3.org/1999/xlink" xml:space="preserve" xmlns:serif="http://www.serif.com/" style="fill-rule:evenodd;clip-rule:evenodd;stroke-linejoin:round;stroke-miterlimit:2;">
    <g id="homey_warning.svg" transform="matrix(2.08333,0,0,2.08333,240,240)">
        <g transform="matrix(1,0,0,1,-24,-24)">
            <clipPath id="_clip1">
                <rect x="0" y="0" width="48" height="48"/>
            </clipPath>
            <g clip-path="url(#_clip1)">
                <path d="M47.498,41.406L27.831,2.41C27.123,0.94 25.629,0.001 23.998,0.001C22.366,0.001 20.872,0.94 20.164,2.41L0.5,41.406C-1.01,44.403 1.08,48 4.334,48L43.668,48C46.918,47.996 49.012,44.403 47.498,41.406ZM21.871,16.106C21.871,14.841 22.856,13.816 24.072,13.816C25.288,13.816 26.273,14.841 26.273,16.106L26.273,29.249C26.273,30.513 25.288,31.539 24.073,31.539C22.856,31.539 21.871,30.513 21.871,29.249L21.871,16.106ZM24,41.328C22.246,41.328 20.823,39.848 20.823,38.024C20.823,36.199 22.246,34.72 24,34.72C25.754,34.72 27.177,36.199 27.177,38.024C27.177,39.849 25.754,41.328 24,41.328Z" style="fill:rgb(49,49,50);"/>
            </g>
        </g>
    </g>
    <g transform="matrix(10,0,0,10,-10,-30)">
        <path d="M3,4L7,4C7.549,4 8,4.451 8,5L8,19C8,19.549 7.549,20 7,20L3,20C2.451,20 2,19.549 2,19L2,5C2,4.451 2.451,4 3,4M10,4L14,4C14.549,4 15,4.451 15,5L15,19C15,19.549 14.549,20 14,20L10,20C9.451,20 9,19.549 9,19L9,5C9,4.451 9.451,4 10,4M17,4L21,4C21.549,4 22,4.451 22,5L22,19C22,19.549 21.549,20 21,20L17,20C16.451,20 16,19.549 16,19L16,5C16,4.451 16.451,4 17,4M4,18L6,18L6,13L4,13L4,18M11,11L13,11L13,6L11,6L11,11M18,18L20,18L20,13L18,13L18,18Z" style="fill-rule:nonzero;"/>
    </g>
</svg>
