<?xml version="1.0" encoding="UTF-8" standalone="no"?>
<!DOCTYPE svg PUBLIC "-//W3C//DTD SVG 1.1//EN" "http://www.w3.org/Graphics/SVG/1.1/DTD/svg11.dtd">
<svg width="100%" height="100%" viewBox="0 0 300 300" version="1.1" xmlns="http://www.w3.org/2000/svg" xmlns:xlink="http://www.w3.org/1999/xlink" xml:space="preserve" xmlns:serif="http://www.serif.com/" style="fill-rule:evenodd;clip-rule:evenodd;stroke-linejoin:round;stroke-miterlimit:2;">
    <g id="homey_warning.svg" transform="matrix(2.08333,0,0,2.08333,240,240)">
        <g transform="matrix(1,0,0,1,-24,-24)">
            <clipPath id="_clip1">
                <rect x="0" y="0" width="48" height="48"/>
            </clipPath>
            <g clip-path="url(#_clip1)">
                <path d="M47.498,41.406L27.831,2.41C27.123,0.94 25.629,0.001 23.998,0.001C22.366,0.001 20.872,0.94 20.164,2.41L0.5,41.406C-1.01,44.403 1.08,48 4.334,48L43.668,48C46.918,47.996 49.012,44.403 47.498,41.406ZM21.871,16.106C21.871,14.841 22.856,13.816 24.072,13.816C25.288,13.816 26.273,14.841 26.273,16.106L26.273,29.249C26.273,30.513 25.288,31.539 24.073,31.539C22.856,31.539 21.871,30.513 21.871,29.249L21.871,16.106ZM24,41.328C22.246,41.328 20.823,39.848 20.823,38.024C20.823,36.199 22.246,34.72 24,34.72C25.754,34.72 27.177,36.199 27.177,38.024C27.177,39.849 25.754,41.328 24,41.328Z" style="fill:rgb(49,49,50);"/>
            </g>
        </g>
    </g>
    <g id="pressure.svg" transform="matrix(4.16667,0,0,4.16667,110,110)">
        <g transform="matrix(1,0,0,1,-24,-24)">
            <path d="M24.321,38.255C24.445,38.255 24.56,38.313 24.632,38.411L24.67,38.474L28.184,46.004C28.239,46.123 28.231,46.262 28.161,46.373C28.104,46.46 28.015,46.52 27.914,46.541L27.836,46.549L27.024,46.549C26.908,46.548 26.799,46.496 26.726,46.406L26.679,46.332L25.6,44.072L22.84,44.072L21.77,46.329C21.72,46.44 21.619,46.519 21.499,46.542L21.426,46.549L20.586,46.549C20.375,46.549 20.201,46.375 20.201,46.164C20.201,46.134 20.205,46.103 20.212,46.074L20.238,46.001L23.794,38.474C23.844,38.363 23.946,38.283 24.066,38.261L24.139,38.255L24.321,38.255ZM30.545,38.251C31.418,38.251 32.003,38.288 32.332,38.363C32.859,38.485 33.296,38.748 33.63,39.151C33.965,39.557 34.138,40.058 34.138,40.639C34.138,41.119 34.019,41.549 33.789,41.921C33.552,42.301 33.204,42.599 32.792,42.774C32.592,42.864 32.362,42.931 32.102,42.977L31.899,43.007L34.162,45.93C34.249,46.045 34.266,46.2 34.205,46.332C34.153,46.435 34.058,46.51 33.946,46.536L33.86,46.546L32.93,46.546C32.835,46.546 32.744,46.511 32.673,46.448L32.626,46.397L30.18,43.237L30.18,46.16C30.18,46.343 30.05,46.498 29.875,46.534L29.798,46.542L29.047,46.542C28.866,46.542 28.709,46.414 28.673,46.237L28.665,46.16L28.665,38.633C28.665,38.45 28.795,38.295 28.969,38.259L29.047,38.251L30.545,38.251ZM16.731,38.251C17.387,38.251 17.888,38.329 18.263,38.495C18.655,38.667 18.967,38.935 19.193,39.293C19.416,39.648 19.532,40.047 19.532,40.477C19.532,40.879 19.43,41.255 19.234,41.587C19.152,41.725 19.055,41.854 18.943,41.969C19.095,42.049 19.223,42.138 19.339,42.236C19.592,42.452 19.789,42.713 19.931,43.014C20.073,43.318 20.144,43.65 20.144,44.002C20.144,44.712 19.884,45.321 19.362,45.812C18.895,46.252 18.285,46.495 17.545,46.536L17.319,46.542L15.246,46.542C15.065,46.542 14.907,46.414 14.871,46.237L14.863,46.16L14.863,38.633C14.863,38.45 14.993,38.295 15.168,38.259L15.246,38.251L16.731,38.251ZM16.413,42.926L16.373,42.926L16.373,45.046L16.92,45.046C17.54,45.046 17.84,44.976 17.982,44.915C18.166,44.842 18.323,44.715 18.432,44.55C18.54,44.395 18.598,44.211 18.598,44.022C18.601,43.793 18.517,43.571 18.364,43.4C18.199,43.21 17.969,43.082 17.661,43.007C17.505,42.97 17.164,42.926 16.413,42.926ZM23.99,0.913C37.267,1.093 48.014,12.012 47.973,25.258C47.953,32.923 44.428,39.97 38.302,44.59C38.099,44.742 37.862,44.817 37.625,44.817C37.622,44.817 37.619,44.817 37.617,44.817C37.001,44.817 36.494,44.31 36.494,43.694C36.494,43.34 36.661,43.006 36.945,42.794C42.507,38.6 45.703,32.206 45.723,25.252C45.757,13.23 36.005,3.322 23.986,3.159C11.998,3.322 2.246,13.233 2.28,25.252C2.3,32.206 5.497,38.6 11.058,42.794C11.548,43.167 11.647,43.877 11.278,44.37C10.906,44.861 10.197,44.96 9.705,44.59C3.579,39.97 0.055,32.923 0.034,25.258C-0.003,12.012 10.744,1.093 23.99,0.913ZM24.227,41.133L23.543,42.578L24.907,42.578L24.227,41.133ZM31.121,39.756L30.177,39.756L30.177,41.553L31.093,41.559C31.652,41.559 31.929,41.495 32.064,41.441C32.222,41.383 32.357,41.275 32.447,41.133C32.542,40.985 32.591,40.812 32.589,40.636C32.59,40.466 32.541,40.3 32.447,40.159C32.359,40.025 32.233,39.922 32.085,39.861C31.986,39.824 31.729,39.756 31.121,39.756ZM16.859,39.756L16.372,39.756L16.372,41.4L16.419,41.4C17.005,41.4 17.292,41.336 17.431,41.282C17.597,41.219 17.74,41.107 17.841,40.961C17.94,40.821 17.992,40.653 17.989,40.481C17.989,40.251 17.918,40.088 17.769,39.963C17.651,39.868 17.4,39.756 16.859,39.756ZM23.989,8.226C28.462,8.28 32.737,10.103 35.873,13.294L38.843,10.882C39.071,10.697 39.406,10.719 39.608,10.932C39.809,11.145 39.81,11.482 39.611,11.697L36.986,14.542C39.321,17.444 40.633,21.038 40.717,24.762C40.83,29.486 38.971,34.051 35.589,37.352C35.147,37.782 34.43,37.773 33.999,37.332C33.569,36.89 33.578,36.173 34.019,35.742C36.954,32.879 38.567,28.918 38.468,24.819C38.397,21.703 37.336,18.689 35.44,16.216L28.293,23.959C28.386,24.296 28.433,24.644 28.433,24.993C28.433,27.125 26.68,28.881 24.548,28.884C22.417,28.882 20.664,27.129 20.661,24.998C20.664,22.866 22.419,21.113 24.551,21.113C25.019,21.113 25.483,21.197 25.921,21.362L34.114,14.715C31.416,12.043 27.783,10.522 23.986,10.473C16.105,10.595 9.742,16.896 9.542,24.819C9.445,28.917 11.058,32.877 13.991,35.741C14.434,36.174 14.444,36.885 14.011,37.331C13.58,37.771 12.863,37.78 12.421,37.351C9.041,34.049 7.184,29.485 7.296,24.761C7.501,15.71 14.937,8.345 23.99,8.227L23.989,8.226Z" style="fill:rgb(49,49,50);"/>
        </g>
    </g>
</svg>
