<?xml version="1.0" encoding="UTF-8" standalone="no"?>
<!DOCTYPE svg PUBLIC "-//W3C//DTD SVG 1.1//EN" "http://www.w3.org/Graphics/SVG/1.1/DTD/svg11.dtd">
<svg width="100%" height="100%" viewBox="0 0 300 300" version="1.1" xmlns="http://www.w3.org/2000/svg" xmlns:xlink="http://www.w3.org/1999/xlink" xml:space="preserve" xmlns:serif="http://www.serif.com/" style="fill-rule:evenodd;clip-rule:evenodd;stroke-linejoin:round;stroke-miterlimit:2;">
    <g id="homey_warning.svg" transform="matrix(2.08333,0,0,2.08333,240,240)">
        <g transform="matrix(1,0,0,1,-24,-24)">
            <clipPath id="_clip1">
                <rect x="0" y="0" width="48" height="48"/>
            </clipPath>
            <g clip-path="url(#_clip1)">
                <path d="M47.498,41.406L27.831,2.41C27.123,0.94 25.629,0.001 23.998,0.001C22.366,0.001 20.872,0.94 20.164,2.41L0.5,41.406C-1.01,44.403 1.08,48 4.334,48L43.668,48C46.918,47.996 49.012,44.403 47.498,41.406ZM21.871,16.106C21.871,14.841 22.856,13.816 24.072,13.816C25.288,13.816 26.273,14.841 26.273,16.106L26.273,29.249C26.273,30.513 25.288,31.539 24.073,31.539C22.856,31.539 21.871,30.513 21.871,29.249L21.871,16.106ZM24,41.328C22.246,41.328 20.823,39.848 20.823,38.024C20.823,36.199 22.246,34.72 24,34.72C25.754,34.72 27.177,36.199 27.177,38.024C27.177,39.849 25.754,41.328 24,41.328Z" style="fill:rgb(49,49,50);"/>
            </g>
        </g>
    </g>
    <g transform="matrix(4.16667,0,0,4.16667,-23.3333,10)">
        <path d="M24.13,0C24.882,0 25.49,0.608 25.49,1.36C25.49,7.451 30.399,13.338 33.642,17.233C34.515,18.279 35.267,19.183 35.838,19.973C36.048,20.263 36.339,20.694 36.64,21.152L36.866,21.497C37.25,22.087 37.629,22.68 38.003,23.276C39.496,25.642 40.253,28.534 40.253,31.87C40.255,40.762 33.021,48 24.13,48C15.234,48 8,40.762 8,31.87C8,28.599 8.724,25.67 10.092,23.405C10.454,22.809 11.882,20.693 12.551,19.795C13.106,19.047 13.806,18.206 14.619,17.233C17.866,13.338 22.774,7.455 22.774,1.368C22.774,1.363 22.774,1.359 22.774,1.354C22.774,0.611 23.385,-0 24.128,-0C24.129,-0 24.129,-0 24.13,-0ZM24.13,7.806C22.328,12.231 19.097,16.102 16.707,18.971C15.922,19.912 15.247,20.725 14.735,21.409C14.115,22.246 12.748,24.266 12.422,24.805C11.307,26.651 10.72,29.09 10.72,31.87C10.72,39.265 16.735,45.28 24.13,45.28C31.521,45.28 37.536,39.265 37.536,31.87C37.536,29.058 36.921,26.651 35.706,24.728C35.239,23.985 34.272,22.475 33.746,21.725L33.634,21.565C33.119,20.854 32.394,19.981 31.554,18.975C29.164,16.106 25.933,12.231 24.13,7.805L24.13,7.806ZM28.13,18.926C28.512,19.474 28.93,19.973 29.296,20.416C29.562,20.737 29.796,21.011 29.976,21.264C30.039,21.352 30.629,22.2 31.271,23.125L31.717,23.77C32.358,24.695 32.941,25.54 32.994,25.625C33.084,25.766 33.132,25.93 33.132,26.098C33.132,26.581 32.734,26.978 32.252,26.978C31.951,26.978 31.67,26.824 31.509,26.571C31.372,26.366 28.729,22.544 28.548,22.294C28.355,22.038 28.153,21.789 27.944,21.546C27.501,21.028 27.081,20.491 26.685,19.936C26.409,19.54 26.507,18.987 26.902,18.709C27.298,18.433 27.851,18.531 28.129,18.926L28.13,18.926Z" style="fill:rgb(49,49,50);"/>
    </g>
</svg>
