<?xml version="1.0" encoding="UTF-8" standalone="no"?>
<!DOCTYPE svg PUBLIC "-//W3C//DTD SVG 1.1//EN" "http://www.w3.org/Graphics/SVG/1.1/DTD/svg11.dtd">
<svg width="100%" height="100%" viewBox="0 0 300 300" version="1.1" xmlns="http://www.w3.org/2000/svg" xmlns:xlink="http://www.w3.org/1999/xlink" xml:space="preserve" xmlns:serif="http://www.serif.com/" style="fill-rule:evenodd;clip-rule:evenodd;stroke-linejoin:round;stroke-miterlimit:2;">
    <g id="homey_warning.svg" transform="matrix(2.08333,0,0,2.08333,240,240)">
        <g transform="matrix(1,0,0,1,-24,-24)">
            <clipPath id="_clip1">
                <rect x="0" y="0" width="48" height="48"/>
            </clipPath>
            <g clip-path="url(#_clip1)">
                <path d="M47.498,41.406L27.831,2.41C27.123,0.94 25.629,0.001 23.998,0.001C22.366,0.001 20.872,0.94 20.164,2.41L0.5,41.406C-1.01,44.403 1.08,48 4.334,48L43.668,48C46.918,47.996 49.012,44.403 47.498,41.406ZM21.871,16.106C21.871,14.841 22.856,13.816 24.072,13.816C25.288,13.816 26.273,14.841 26.273,16.106L26.273,29.249C26.273,30.513 25.288,31.539 24.073,31.539C22.856,31.539 21.871,30.513 21.871,29.249L21.871,16.106ZM24,41.328C22.246,41.328 20.823,39.848 20.823,38.024C20.823,36.199 22.246,34.72 24,34.72C25.754,34.72 27.177,36.199 27.177,38.024C27.177,39.849 25.754,41.328 24,41.328Z" style="fill:rgb(49,49,50);"/>
            </g>
        </g>
    </g>
    <g id="tamper.svg" transform="matrix(4.16667,0,0,4.16667,110,110)">
        <g transform="matrix(1,0,0,1,-24,-24)">
            <clipPath id="_clip2">
                <rect x="0" y="0" width="48" height="48"/>
            </clipPath>
            <g clip-path="url(#_clip2)">
                <path d="M45.72,15.553C45.033,14.966 44.083,14.918 41.978,15.08C39.365,15.352 35.759,15.904 32.131,16.062C29.427,16.18 26.718,16.242 24.004,16.25C21.295,16.246 18.582,16.18 15.877,16.062C12.254,15.904 8.647,15.352 6.031,15.08C3.926,14.918 2.976,14.966 2.289,15.553C0.777,18.755 -0.004,22.254 -0,25.795C0,26.435 0.03,27.07 0.083,27.701C0.35,27.981 0.653,28.253 0.998,28.507C4.114,30.794 7.523,32.467 11.26,33.413C12.424,33.707 13.672,33.851 14.866,33.786C16.442,33.702 17.724,32.756 18.954,31.832C19.891,31.131 20.761,30.347 21.715,29.668C22.525,29.09 23.265,28.796 24,28.752C24.735,28.796 25.475,29.09 26.284,29.668C27.234,30.347 28.109,31.131 29.046,31.832C30.276,32.756 31.558,33.702 33.133,33.786C34.347,33.84 35.563,33.714 36.74,33.413C40.477,32.467 43.886,30.798 47.002,28.507C47.352,28.249 47.65,27.981 47.917,27.701C48.266,23.529 47.508,19.338 45.72,15.553ZM17.886,24.411C17.615,25.839 15.094,26.558 12.258,26.019C9.418,25.48 7.339,23.885 7.61,22.457C7.882,21.029 10.403,20.311 13.238,20.85C16.074,21.393 18.158,22.987 17.886,24.411ZM35.755,26.023C32.915,26.562 30.398,25.839 30.127,24.415C29.855,22.987 31.939,21.393 34.775,20.858C37.615,20.32 40.131,21.042 40.403,22.466C40.678,23.89 38.595,25.484 35.755,26.023Z" style="fill:rgb(49,49,50);"/>
            </g>
        </g>
    </g>
</svg>
