<?xml version="1.0" encoding="UTF-8"?>
<svg width="48px" height="48px" viewBox="0 0 48 48" version="1.1" xmlns="http://www.w3.org/2000/svg" xmlns:xlink="http://www.w3.org/1999/xlink">
    <title>icon / capabilities / sensor / measure_temperature</title>
    <g id="Capabilities" stroke="none" stroke-width="1" fill="none" fill-rule="evenodd">
        <g id="icon-/-capabilities-/-sensor-/-measure_temperature" fill="#313132">
            <path d="M23.6998936,-3.55271368e-14 C27.0003039,-3.55271368e-14 29.6880413,2.68773743 29.6880413,5.9881477 L29.6880413,28.4309375 C31.019146,29.3317125 32.1423796,30.5278833 32.951983,31.9209847 C33.9001671,33.5474852 34.3997873,35.4073849 34.3997873,37.3001064 C34.3997873,40.1592463 33.2874943,42.8469837 31.2671327,44.8673454 C29.246771,46.887707 26.5590336,48 23.6998936,48 C20.8407537,48 18.1530163,46.887707 16.1326546,44.8673454 C14.112293,42.8469837 13,40.1592463 13,37.3001064 C13,35.4073849 13.4996201,33.5474852 14.4478043,31.9209847 C15.2574077,30.5278833 16.3806412,29.3353594 17.7117459,28.4309375 L17.7117459,5.9881477 C17.7117459,2.68773743 20.3994834,-3.55271368e-14 23.6998936,-3.55271368e-14 Z M23.6998936,2.21364534 C22.6970065,2.21364534 21.7488224,2.60750646 21.0340374,3.32229145 C20.3192524,4.03707643 19.9253913,4.9852606 19.9253913,5.9881477 L19.9253913,29.0399635 C19.9253913,29.4301778 19.7175201,29.7912171 19.3820088,29.9917946 C18.1347819,30.7321076 17.0881325,31.7824039 16.3587601,33.0332776 C15.6075065,34.32062 15.2099985,35.7975991 15.2099985,37.2964595 C15.2099985,39.5648078 16.0925391,41.6945753 17.6971585,43.2991947 C19.3017778,44.903814 21.4315454,45.7863547 23.6998936,45.7863547 C25.9682419,45.7863547 28.0980094,44.903814 29.7026288,43.2991947 C31.3072481,41.6945753 32.1897888,39.5648078 32.1897888,37.2964595 C32.1897888,35.7939523 31.7922808,34.32062 31.0410272,33.0332776 C30.3116548,31.7824039 29.2650053,30.7284607 28.0177785,29.9917946 C27.6822671,29.7912171 27.474396,29.4301778 27.474396,29.0399635 L27.474396,5.9881477 C27.474396,4.9852606 27.0805349,4.03707643 26.3657499,3.32229145 C25.6509649,2.60750646 24.7027807,2.21364534 23.6998936,2.21364534 Z M25.384744,17.2970673 L25.384744,31.1587905 C28.1308312,31.8991035 30.1511928,34.4044978 30.1475509,37.3839842 C30.1475509,40.9433217 27.2592311,43.8316365 23.6998936,43.8316365 C20.1405561,43.8316365 17.2522413,40.9469685 17.2522413,37.3839842 C17.2522413,34.4044978 19.2726029,31.8991035 22.0186902,31.1587905 L22.0186902,31.1587905 L22.0186902,17.2970673 L25.384744,17.2970673 Z" id="Combined-Shape"></path>
        </g>
    </g>
</svg>