<svg viewBox="0 0 48 48" xmlns="http://www.w3.org/2000/svg"><path d="M24.321 38.255c.124 0 .239.058.311.156l.038.063 3.514 7.53a.387.387 0 0 1-.023.369.39.39 0 0 1-.247.168l-.078.008h-.812a.386.386 0 0 1-.298-.143l-.047-.074-1.079-2.26h-2.76l-1.07 2.257a.374.374 0 0 1-.271.213l-.073.007h-.84a.385.385 0 0 1-.374-.475l.026-.073 3.556-7.527a.374.374 0 0 1 .272-.213l.073-.006h.182Zm6.224-.004c.873 0 1.458.037 1.787.112.527.122.964.385 1.298.788.335.406.508.907.508 1.488 0 .48-.119.91-.349 1.282a2.185 2.185 0 0 1-.997.853c-.2.09-.43.157-.69.203l-.203.03 2.263 2.923c.087.115.104.27.043.402a.39.39 0 0 1-.259.204l-.086.01h-.93a.387.387 0 0 1-.257-.098l-.047-.051-2.446-3.16v2.923c0 .183-.13.338-.305.374l-.077.008h-.751a.382.382 0 0 1-.374-.305l-.008-.077v-7.527c0-.183.13-.338.304-.374l.078-.008h1.498Zm-13.814 0c.656 0 1.157.078 1.532.244.392.172.704.44.93.798.223.355.339.754.339 1.184 0 .402-.102.778-.298 1.11a2.04 2.04 0 0 1-.291.382c.152.08.28.169.396.267.253.216.45.477.592.778.142.304.213.636.213.988 0 .71-.26 1.319-.782 1.81-.467.44-1.077.683-1.817.724l-.226.006h-2.073a.382.382 0 0 1-.375-.305l-.008-.077v-7.527c0-.183.13-.338.305-.374l.078-.008h1.485Zm-.318 4.675h-.04v2.12h.547c.62 0 .92-.07 1.062-.131a.972.972 0 0 0 .45-.365.919.919 0 0 0 .166-.528.913.913 0 0 0-.234-.622c-.165-.19-.395-.318-.703-.393-.156-.037-.497-.081-1.248-.081ZM23.99.913c13.277.18 24.024 11.099 23.983 24.345-.02 7.665-3.545 14.712-9.671 19.332-.203.152-.44.227-.677.227a1.123 1.123 0 0 1-.68-2.023c5.562-4.194 8.758-10.588 8.778-17.542.034-12.022-9.718-21.93-21.737-22.093-11.988.163-21.74 10.074-21.706 22.093.02 6.954 3.217 13.348 8.778 17.542a1.13 1.13 0 0 1 .22 1.576 1.125 1.125 0 0 1-1.573.22C3.579 39.97.055 32.923.034 25.258-.003 12.012 10.744 1.093 23.99.913Zm.237 40.22-.684 1.445h1.364l-.68-1.445Zm6.894-1.377h-.944v1.797l.916.006c.559 0 .836-.064.971-.118a.768.768 0 0 0 .383-.308.899.899 0 0 0 .142-.497.849.849 0 0 0-.142-.477.793.793 0 0 0-.362-.298c-.099-.037-.356-.105-.964-.105Zm-14.262 0h-.487V41.4h.047c.586 0 .873-.064 1.012-.118a.883.883 0 0 0 .41-.321.808.808 0 0 0 .148-.48c0-.23-.071-.393-.22-.518-.118-.095-.369-.207-.91-.207Zm7.13-31.53a16.95 16.95 0 0 1 11.884 5.068l2.97-2.412a.564.564 0 0 1 .765.05.56.56 0 0 1 .003.765l-2.625 2.845a16.908 16.908 0 0 1 3.731 10.22 17.026 17.026 0 0 1-5.128 12.59 1.126 1.126 0 0 1-1.59-.02 1.126 1.126 0 0 1 .02-1.59 14.76 14.76 0 0 0 4.449-10.923 14.693 14.693 0 0 0-3.028-8.603l-7.147 7.743a3.891 3.891 0 0 1-3.745 4.925 3.891 3.891 0 0 1-3.887-3.886 3.89 3.89 0 0 1 5.26-3.636l8.193-6.647a14.66 14.66 0 0 0-10.128-4.242c-7.881.122-14.244 6.423-14.444 14.346a14.78 14.78 0 0 0 4.449 10.922c.443.433.453 1.144.02 1.59a1.127 1.127 0 0 1-1.59.02 17.036 17.036 0 0 1-5.125-12.59A16.918 16.918 0 0 1 23.99 8.227Z" fill="#313132" fill-rule="evenodd"/></svg>