<?xml version="1.0" encoding="UTF-8" standalone="no"?>
<!DOCTYPE svg PUBLIC "-//W3C//DTD SVG 1.1//EN" "http://www.w3.org/Graphics/SVG/1.1/DTD/svg11.dtd">
<svg width="100%" height="100%" viewBox="0 0 300 300" version="1.1" xmlns="http://www.w3.org/2000/svg" xmlns:xlink="http://www.w3.org/1999/xlink" xml:space="preserve" xmlns:serif="http://www.serif.com/" style="fill-rule:evenodd;clip-rule:evenodd;stroke-linejoin:round;stroke-miterlimit:2;">
    <g id="pressure.svg" transform="matrix(6.25,0,0,6.25,150,150)">
        <g transform="matrix(1,0,0,1,-24,-24)">
            <path d="M23.99,0.913C37.267,1.093 48.014,12.012 47.973,25.258C47.953,32.923 44.428,39.97 38.302,44.59C38.099,44.742 37.862,44.817 37.625,44.817C37.622,44.817 37.619,44.817 37.617,44.817C37.001,44.817 36.494,44.31 36.494,43.694C36.494,43.34 36.661,43.006 36.945,42.794C42.507,38.6 45.703,32.206 45.723,25.252C45.757,13.23 36.005,3.322 23.986,3.159C11.998,3.322 2.246,13.233 2.28,25.252C2.3,32.206 5.497,38.6 11.058,42.794C11.548,43.167 11.647,43.877 11.278,44.37C10.906,44.861 10.197,44.96 9.705,44.59C3.579,39.97 0.055,32.923 0.034,25.258C-0.003,12.012 10.744,1.093 23.99,0.913Z" style="fill:rgb(49,49,50);"/>
            <path d="M23.989,8.226C28.462,8.28 32.737,10.103 35.873,13.294L38.843,10.882C39.071,10.697 39.406,10.719 39.608,10.932C39.809,11.145 39.81,11.482 39.611,11.697L36.986,14.542C39.321,17.444 40.633,21.038 40.717,24.762C40.83,29.486 38.971,34.051 35.589,37.352C35.147,37.782 34.43,37.773 33.999,37.332C33.569,36.89 33.578,36.173 34.019,35.742C36.954,32.879 38.567,28.918 38.468,24.819C38.397,21.703 37.336,18.689 35.44,16.216L28.293,23.959C28.386,24.296 28.433,24.644 28.433,24.993C28.433,27.125 26.68,28.881 24.548,28.884C22.417,28.882 20.664,27.129 20.661,24.998C20.664,22.866 22.419,21.113 24.551,21.113C25.019,21.113 25.483,21.197 25.921,21.362L34.114,14.715C31.416,12.043 27.783,10.522 23.986,10.473C16.105,10.595 9.742,16.896 9.542,24.819C9.445,28.917 11.058,32.877 13.991,35.741C14.434,36.174 14.444,36.885 14.011,37.331C13.58,37.771 12.863,37.78 12.421,37.351C9.041,34.049 7.184,29.485 7.296,24.761C7.501,15.71 14.937,8.345 23.99,8.227L23.989,8.226Z" style="fill:rgb(49,49,50);"/>
        </g>
    </g>
    <g transform="matrix(1.42892,0,0,1.42892,-106.321,-74.93)">
        <path d="M171.41,224.458L179.515,248.457L187.645,224.287C188.068,223.018 188.386,222.135 188.597,221.638C188.809,221.142 189.159,220.694 189.647,220.296C190.135,219.897 190.803,219.697 191.649,219.697C192.267,219.697 192.841,219.852 193.37,220.161C193.899,220.471 194.314,220.882 194.615,221.394C194.916,221.907 195.067,222.424 195.067,222.945C195.067,223.303 195.018,223.689 194.92,224.104C194.823,224.519 194.701,224.926 194.554,225.325C194.408,225.724 194.261,226.135 194.115,226.558L185.448,249.946C185.138,250.842 184.829,251.692 184.52,252.498C184.211,253.303 183.853,254.011 183.446,254.622C183.039,255.232 182.498,255.733 181.822,256.123C181.147,256.514 180.321,256.709 179.344,256.709C178.368,256.709 177.542,256.518 176.866,256.135C176.191,255.753 175.645,255.248 175.23,254.622C174.815,253.995 174.453,253.283 174.144,252.486C173.835,251.688 173.526,250.842 173.216,249.946L164.696,226.753C164.549,226.33 164.399,225.915 164.244,225.508C164.089,225.101 163.959,224.662 163.853,224.19C163.748,223.718 163.695,223.319 163.695,222.993C163.695,222.163 164.028,221.406 164.696,220.723C165.363,220.039 166.201,219.697 167.21,219.697C168.447,219.697 169.322,220.076 169.835,220.833C170.348,221.59 170.873,222.798 171.41,224.458Z" style="fill-rule:nonzero;"/>
    </g>
</svg>
