<svg viewBox="0 0 60 60" xmlns="http://www.w3.org/2000/svg" xmlns:xlink="http://www.w3.org/1999/xlink"><defs><filter id="b"><feColorMatrix in="SourceGraphic" values="0 0 0 0 0.247059 0 0 0 0 0.780392 0 0 0 0 0.000000 0 0 0 1.000000 0"/></filter><path id="a" d="M0 0h60v60H0z"/></defs><g fill="none" fill-rule="evenodd"><mask id="c" fill="#fff"><use xlink:href="#a"/></mask><g filter="url(#b)"><g fill="#000" fill-rule="nonzero" mask="url(#c)"><path d="M37.964 10.625v3.368c0 .441.277.828.666 1.049 6.945 3.643 11.334 11.373 10 19.93-1.333 8.336-8.278 14.85-16.666 15.845-11.556 1.325-21.39-7.674-21.39-18.937 0-7.287 4.167-13.636 10.223-16.838.389-.221.667-.608.667-1.05v-3.367c0-.883-.945-1.49-1.723-1.104-9.277 4.085-15.5 13.526-14.666 24.347.889 11.593 10.166 21.145 21.777 22.414 14.89 1.657 27.5-9.937 27.5-24.347 0-9.992-6-18.605-14.666-22.414-.778-.331-1.722.22-1.722 1.104Z"/><path d="M29.686 24.206c1.5 0 2.778-1.214 2.778-2.76V6.76c0-1.49-1.223-2.76-2.778-2.76-1.556 0-2.778 1.215-2.778 2.76v14.686c0 1.546 1.278 2.76 2.778 2.76Z"/></g></g></g></svg>