<?xml version="1.0" encoding="UTF-8" standalone="no"?>
<!DOCTYPE svg PUBLIC "-//W3C//DTD SVG 1.1//EN" "http://www.w3.org/Graphics/SVG/1.1/DTD/svg11.dtd">
<svg width="100%" height="100%" viewBox="0 0 300 300" version="1.1" xmlns="http://www.w3.org/2000/svg" xmlns:xlink="http://www.w3.org/1999/xlink" xml:space="preserve" xmlns:serif="http://www.serif.com/" style="fill-rule:evenodd;clip-rule:evenodd;stroke-linejoin:round;stroke-miterlimit:2;">
    <g id="icon.svg" transform="matrix(0.370994,0,0,0.370994,163.329,180.927)">
        <g transform="matrix(1,0,0,1,-378.251,-334.434)">
            <g id="g887" transform="matrix(1,0,0,1,-137.72,-158.6)">
                <path id="path835" d="M514.449,177.766C515.718,177.657 517.427,177.704 518.127,177.777C518.332,177.941 518.487,178.06 518.801,178.328C519.814,179.195 521.326,180.56 523.293,182.393C527.226,186.058 533.003,191.611 540.707,199.137C556.115,214.187 579.246,237.138 611.029,268.898L702.717,360.522C703.554,361.358 704.691,361.828 705.875,361.828C708.298,361.828 710.303,359.857 710.344,357.434L710.656,338.174L710.937,320.838L713.254,318.717L715.707,316.469L780.291,316.469L782.746,318.719L785.039,320.82L785.301,380.193L785.57,441.52C785.575,442.696 786.045,443.823 786.875,444.656L830.742,488.656C854.915,512.902 866.928,524.977 872.037,531.393C874.592,534.601 875.189,536.195 875.266,536.74C875.342,537.286 875.173,537.822 874.361,539.947C873.576,542.005 872.324,543.472 871.215,544.158C870.554,544.567 870.558,544.591 869.85,544.76C869.141,544.929 867.69,545.125 865.059,545.252C859.796,545.505 849.95,545.531 831.133,545.531L792,545.531C789.549,545.532 787.532,547.549 787.531,550L787.531,676.031C787.531,745.408 787.612,778.236 786.896,793.832C786.539,801.63 785.792,805.144 785.455,805.902C785.287,806.281 785.478,805.999 785.361,806.082C785.245,806.165 784.571,806.496 783.484,807.158C782.785,807.584 783.457,807.444 781.242,807.689C779.027,807.935 774.653,808.137 766.465,808.264C750.088,808.518 718.312,808.526 655.508,808.527L539.301,808.527L556.162,791.656L579.336,768.467L604.49,768.477L628.904,768.487L629.869,770.176C641.16,789.95 671.127,788.436 681.41,767.801C688.72,753.133 682.858,735.486 668.221,728.325C654.757,721.737 638.671,725.661 630.752,737.844L629.072,740.43L601.043,740.479L570.594,740.534C569.415,740.536 568.283,741.005 567.447,741.837L545.147,764.058L530.469,778.683L530.469,733.778L558.393,706.177L586.338,678.552L631.172,678.513L675.348,678.474L676.049,679.605C688.626,699.926 718.732,698.806 728.686,677.431C737.799,657.86 723.222,635.521 701.49,635.565C690.492,635.588 680.414,641.505 675.475,651.056L675.229,651.534L613.301,651.534L631.418,633.405L657.162,607.648C657.999,606.81 658.469,605.673 658.469,604.489L658.469,555.335L675.467,538.357L692.035,521.806L694.482,522.355C701.866,524.009 709.12,522.752 716.094,518.769C727.133,512.464 731.798,500.675 730.42,489.819C729.042,478.964 721.609,468.65 709.354,465.064C698.163,461.789 686.967,465.334 678.943,474.448C672.186,482.125 669.509,492.865 672.772,501.88C672.725,501.95 672.742,501.937 672.67,502.034C671.679,503.368 668.656,506.515 662.889,512.282L658.469,516.702L658.469,449.774L658.953,449.524C661.989,447.955 664.533,445.44 666.852,442.599C669.17,439.757 671.138,436.708 672.121,433.427C677.576,415.22 665.709,396.771 647.078,394.862C632.523,393.372 621.056,402.177 616.678,413.44C612.3,424.704 614.827,438.931 626.6,447.601L629.531,449.759L629.531,515.794C625.949,511.919 621.568,507.16 619.461,504.843L616.842,501.962L617.426,499.646C622.076,481.177 607.436,463.307 588.068,463.4C572.38,463.474 560.045,475.25 558.809,491.126C558.371,496.742 559.116,500.118 562.209,506.066C565.117,511.659 567.876,514.708 572.619,517.548C579.752,521.818 587.448,523.295 594.914,521.546L597.104,521.034L614.096,537.966L631.531,555.339L631.531,594.638L609.096,617.087C602.58,623.607 596.572,629.534 592.156,633.816C591.931,634.034 591.836,634.12 591.619,634.329C591.551,631.59 591.469,628.97 591.469,625.528L591.469,609.757L591.826,609.569C594.708,608.057 597.318,605.681 599.756,603.009C602.194,600.337 604.323,597.511 605.576,594.503C606.948,591.211 607.466,587.114 607.459,583.278C607.425,563.212 587.866,548.859 568.945,555.144C548.199,562.035 541.521,588.878 556.969,604.03C559.167,606.187 561.706,608.28 564.178,609.573L564.531,609.759L564.531,661.769L544.397,681.206L530.469,694.653L530.469,574.67C530.469,538.786 530.533,505.998 530.635,482.088C530.686,470.133 530.746,460.396 530.813,453.609C530.846,450.216 530.882,447.559 530.918,445.746C530.93,445.147 530.942,444.795 530.953,444.391C531.133,444.192 531.248,444.056 531.492,443.795C532.437,442.784 533.821,441.354 535.514,439.647C538.899,436.231 543.526,431.686 548.541,426.871L565.162,410.914L568.221,411.553C580.794,414.178 594.039,407.408 600.244,395.654C602.289,391.782 603.012,387.157 603.012,382.5C603.012,377.843 602.289,373.218 600.244,369.346C594.399,358.274 581.77,351.164 569.979,353.131C563.45,354.22 556.306,357.473 552.057,362.143C545.222,369.655 542.617,380.755 544.977,391.047L545.223,392.117L530.129,406.533L516.313,419.729L502.625,406.408L487.672,391.856L488.328,389.115C492.378,372.233 480.783,356.086 463.022,353.129C451.229,351.166 438.601,358.275 432.756,369.346C430.711,373.218 429.988,377.843 429.988,382.5C429.988,387.157 430.711,391.782 432.756,395.654C438.977,407.438 452.23,414.172 464.859,411.535L467.986,410.883L475.309,417.973C480.247,422.755 488.712,431.063 494.07,436.387L502.531,444.791L502.529,486.215C502.529,509.984 502.23,551.443 501.865,578.27L501.346,616.518L477.996,593.176L448.473,563.664L448.524,539.016L448.574,514.914L451.147,513.223C466.367,503.22 468.279,480.87 455.127,468.092C444.445,457.713 427.781,456.87 415.82,465.992C412.559,468.48 409.959,472.377 407.859,476.643C405.019,482.412 404.313,485.859 404.801,491.244C405.743,501.632 411.493,511.485 420.285,515.127L420.531,515.228L420.531,536.699L402.66,518.838L378.469,494.662L378.469,448.752L380.887,447.225C391.782,440.338 395.837,428.167 393.752,417.311C391.668,406.454 383.442,396.527 370.756,393.697C352.787,389.689 335.531,404.002 335.531,422.647C335.531,433.74 340.306,442.29 349.842,448.391L351.531,449.471L351.531,506.643C351.531,507.829 352.004,508.968 352.844,509.807L380.094,536.977L399.693,556.518L393.815,556.518C385.912,556.518 381.738,556.458 380.059,556.268C378.925,553.705 377.227,551.511 375.078,549.432C372.55,546.986 369.571,544.776 366.395,543.297C347.025,534.277 324.295,548.643 324.225,569.981C324.154,591.425 346.881,605.785 366.395,596.697C369.571,595.218 372.55,593.007 375.078,590.561C377.207,588.501 378.885,586.325 380.022,583.795C380.201,583.761 379.996,583.795 380.889,583.729C383.898,583.497 390.532,583.465 403.322,583.465L427.658,583.465L464.594,620.411L501.531,657.358L501.531,777.696L490.158,766.334L472.471,748.665L472.477,723.508L472.485,699.092L474.18,698.123C479.516,695.076 483.42,689.942 485.795,684.223C488.171,678.504 489.06,672.093 487.502,666.118C485.505,658.457 480.646,651.891 473.899,647.719C469.289,644.87 465.957,644.028 458.5,644.028C451.039,644.028 447.711,644.869 443.075,647.729C435.829,652.199 430.27,660.549 429.012,668.936C427.306,680.314 432.923,692.47 442.75,698.082L444.516,699.092L444.524,713.479L444.526,719.799L442.383,717.694C437.016,712.421 423.083,698.762 411.413,687.33C402.469,678.569 397.204,673.294 394.464,670.237C393.39,669.039 393.022,668.492 392.714,668.049C393.015,666.989 393.204,665.939 393.313,664.811C393.489,662.992 393.508,661.012 393.409,658.991C393.211,654.948 392.717,650.965 391.2,647.625C386.36,636.973 376.018,630.571 364,630.571C347.6,630.571 334.618,642.87 334.553,658.862C334.52,666.898 336.669,673.451 341.373,678.946C347.323,685.896 354.427,688.952 364.068,688.805C366.186,688.773 368.282,688.702 369.998,688.612C370.838,688.568 371.4,688.459 371.998,688.418C372.289,688.64 372.512,688.8 372.969,689.18C374.415,690.384 376.572,692.303 379.305,694.83C384.77,699.885 392.578,707.395 402.266,716.932L425.219,739.528L404.746,739.528L402.588,736.618C395.705,727.34 385.893,722.732 374.922,723.856C359.644,725.421 348.576,737.951 348.576,753.496C348.576,765.121 355.13,775.424 365.631,780.194C369.094,781.767 373.195,782.31 377.389,782.409C381.582,782.507 385.646,782.179 389.145,780.717C392.18,779.449 395.072,777.254 397.842,774.778C400.612,772.301 403.049,769.798 404.561,766.875L404.771,766.467L453.432,766.467L477.736,790.651L495.674,808.498L377.234,808.512L249.709,808.53L248.705,807.61L248.705,809.575C248.705,808.323 248.178,807.126 247.254,806.28L244.961,804.179L244.469,678.308L243.969,550.482C243.959,548.057 241.979,546.061 239.555,546.03L199.41,545.53C180.238,545.292 170.141,545.137 164.85,544.825C162.204,544.669 160.77,544.446 160.268,544.312C159.765,544.178 160.298,544.457 160.002,544.189C157.138,541.595 156.305,539.396 156.723,535.691C156.775,535.226 156.63,535.729 156.795,535.417C156.96,535.106 157.573,534.173 158.955,532.53C161.72,529.244 167.445,523.13 178.682,511.644C201.155,488.672 245.762,444.058 334.33,355.489C414.094,275.725 458.791,231.112 483.924,206.403C496.49,194.049 504.177,186.662 508.84,182.407C511.171,180.28 512.758,178.933 513.715,178.202C514.08,177.924 514.278,177.846 514.449,177.765L514.449,177.766Z" style="fill-rule:nonzero;"/>
                <path id="path951" d="M585.84,639.799C585.79,639.843 585.706,639.923 585.662,639.961C585.701,639.9 585.721,639.864 585.84,639.799Z" style="fill-rule:nonzero;"/>
                <path id="path949" d="M372.117,762.369C370.836,761.472 369.155,759.222 368.381,757.369C367.171,754.472 367.171,753.528 368.381,750.631C371.054,744.234 376.75,742.33 382.58,745.885C388.51,749.502 389.393,756.698 384.505,761.586C381.614,764.476 375.663,764.853 372.117,762.369Z" style="fill:rgb(0,0,5);fill-rule:nonzero;"/>
                <path id="path947" d="M651.5,763.092C645.067,760.338 643.476,752.244 648.365,747.141C651.733,743.625 655.419,742.73 659.5,744.436C663.79,746.229 665.273,748.458 665.273,753.111C665.273,756.274 664.625,757.836 662.386,760.071C659.265,763.189 654.69,764.459 651.5,763.092Z" style="fill:rgb(0,0,9);fill-rule:nonzero;"/>
                <path id="path945" d="M451.766,681.082C448.961,678.576 448.5,677.505 448.5,673.495C448.5,669.62 448.977,668.417 451.306,666.413C457.969,660.682 467.929,665.61 467.978,674.661C467.996,678.094 467.462,679.275 464.923,681.411C460.674,684.987 456.005,684.87 451.766,681.082Z" style="fill:rgb(0,0,5);fill-rule:nonzero;"/>
                <path id="path943" d="M696.345,672.069C688.201,667.103 692.977,654 702.931,654C708.484,654 712.007,657.583 711.978,663.202C711.932,672.041 703.833,676.635 696.345,672.069Z" style="fill:rgb(0,0,9);fill-rule:nonzero;"/>
                <path id="path941" d="M361,671.296C360.175,670.996 358.263,669.597 356.75,668.188C352.766,664.476 352.845,658.001 356.923,653.923C364.029,646.818 375.165,652.71 374.079,663C373.469,668.775 366.398,673.26 361,671.296Z" style="fill:rgb(0,0,5);fill-rule:nonzero;"/>
                <path id="path939" d="M569.901,590.894C566.123,586.85 565.926,581.36 569.413,577.306C571.417,574.977 572.62,574.5 576.495,574.5C580.505,574.5 581.576,574.961 584.082,577.766C587.222,581.28 587.864,585.509 585.837,589.316C583.997,592.771 581.825,593.934 577.151,593.968C573.554,593.995 572.301,593.463 569.901,590.894Z" style="fill:rgb(0,0,5);fill-rule:nonzero;"/>
                <path id="path937" d="M348.763,578.435C345.033,576.411 342.668,571.582 343.427,567.538C344.924,559.557 354.399,556.938 360.327,562.866C362.907,565.446 363.446,566.751 363.356,570.198C363.268,573.56 362.624,574.947 360.107,577.195C356.6,580.329 352.982,580.724 348.763,578.435Z" style="fill:rgb(0,0,9);fill-rule:nonzero;"/>
                <path id="path935" d="M581.783,500.25C575.016,492.491 578.783,482.5 588.476,482.5C593.521,482.5 596.632,484.802 597.829,489.419C598.934,493.685 598.208,496.519 595.252,499.476C592.097,502.63 584.253,503.081 581.783,500.25Z" style="fill:rgb(0,0,5);fill-rule:nonzero;"/>
                <path id="path933" d="M694.589,498.923C687.267,490.222 696.772,478.211 706.855,483.425C712.583,486.387 713.725,494.429 709.077,499.077C706.715,501.439 705.293,502 701.666,502C697.882,502 696.772,501.517 694.589,498.923Z" style="fill:rgb(0,0,9);fill-rule:nonzero;"/>
                <path id="path931" d="M432,499.348C426.307,497.472 423,493.653 423,488.954C423,485.704 426.048,481.223 429.125,479.948C437.356,476.539 447.252,487.388 442.511,494.624C441.192,496.637 435.149,500.304 433.782,499.921C433.627,499.878 432.825,499.62 432,499.348Z" style="fill:rgb(0,0,9);fill-rule:nonzero;"/>
                <path id="path929" d="M638.4,430.6C633.868,426.068 633.696,421.15 637.923,416.923C644.365,410.482 655,414.889 655,424C655,427.258 654.369,428.784 652.077,431.077C647.85,435.304 642.932,435.132 638.4,430.6Z" style="fill:rgb(0,0,9);fill-rule:nonzero;"/>
                <path id="path927" d="M358.117,430.369C355.115,428.267 353.037,423.255 353.71,419.739C354.366,416.306 359.327,412 362.626,412C368.581,412 374,417.549 374,423.646C374,428.015 369.485,432 364.535,432C362.286,432 359.397,431.266 358.117,430.369Z" style="fill:rgb(0,0,9);fill-rule:nonzero;"/>
                <path id="path925" d="M453.75,390.92C451.421,389.563 449,384.737 449,381.45C449,377.464 454.885,372 459.177,372C465.406,372 470.462,378.131 469.29,384.261C468.157,390.193 459.137,394.057 453.75,390.92Z" style="fill:rgb(0,0,9);fill-rule:nonzero;"/>
                <path id="path903" d="M566.051,389.338C563.17,385.674 562.604,382.729 563.981,378.556C565.466,374.057 568.397,372 573.321,372C576.368,372 577.818,372.665 580.099,375.106C586.503,381.961 582.077,392 572.65,392C568.963,392 567.765,391.517 566.051,389.338Z" style="fill:rgb(0,0,9);fill-rule:nonzero;"/>
            </g>
        </g>
    </g>
    <g id="account-group.svg" transform="matrix(5.625,0,0,5.625,67.5,37.5)">
        <g transform="matrix(1,0,0,1,-12,-12)">
            <path d="M12,5.5C13.92,5.5 15.5,7.08 15.5,9C15.5,10.92 13.92,12.5 12,12.5C10.08,12.5 8.5,10.92 8.5,9C8.5,7.08 10.08,5.5 12,5.5M5,8C5.56,8 6.08,8.15 6.53,8.42C6.38,9.85 6.8,11.27 7.66,12.38C7.16,13.34 6.16,14 5,14C3.354,14 2,12.646 2,11C2,9.354 3.354,8 5,8M19,8C20.646,8 22,9.354 22,11C22,12.646 20.646,14 19,14C17.84,14 16.84,13.34 16.34,12.38C17.2,11.27 17.62,9.85 17.47,8.42C17.92,8.15 18.44,8 19,8M5.5,18.25C5.5,16.18 8.41,14.5 12,14.5C15.59,14.5 18.5,16.18 18.5,18.25L18.5,20L5.5,20L5.5,18.25M0,20L0,18.5C0,17.11 1.89,15.94 4.45,15.6C3.86,16.28 3.5,17.22 3.5,18.25L3.5,20L0,20M24,20L20.5,20L20.5,18.25C20.5,17.22 20.14,16.28 19.55,15.6C22.11,15.94 24,17.11 24,18.5L24,20Z" style="fill-rule:nonzero;"/>
        </g>
    </g>
</svg>
