<?xml version="1.0" encoding="UTF-8" standalone="no"?>
<!DOCTYPE svg PUBLIC "-//W3C//DTD SVG 1.1//EN" "http://www.w3.org/Graphics/SVG/1.1/DTD/svg11.dtd">
<svg width="100%" height="100%" viewBox="0 0 24 24" version="1.1" xmlns="http://www.w3.org/2000/svg" xmlns:xlink="http://www.w3.org/1999/xlink" xml:space="preserve" xmlns:serif="http://www.serif.com/" style="fill-rule:evenodd;clip-rule:evenodd;stroke-linejoin:round;stroke-miterlimit:2;">
    <rect x="16" y="16" width="4" height="4"/>
    <g transform="matrix(1,0,0,1,0,-6)">
        <path d="M16,20L20,20L20,16L16,20Z"/>
    </g>
    <g transform="matrix(1,0,0,1,0,6)">
        <rect x="10" y="10" width="4" height="4"/>
    </g>
    <rect x="4" y="10" width="4" height="4"/>
    <rect x="4" y="16" width="4" height="4"/>
    <g transform="matrix(1,0,0,1,0,-12)">
        <rect x="10" y="16" width="4" height="4"/>
    </g>
    <g transform="matrix(1,0,0,1,0,-6)">
        <path d="M10,20L11,20L11,17L12,16L10,16L10,20Z"/>
    </g>
    <g transform="matrix(1,0,0,1,6,-12)">
        <path d="M10,18L12,16L10,16L10,18Z"/>
    </g>
    <rect x="4" y="4" width="4" height="4"/>
    <g transform="matrix(0.555478,0,0,0.555478,10.3336,2.33495)">
        <path d="M20.71,7.04C21.1,6.65 21.1,6 20.71,5.63L18.37,3.29C18,2.9 17.35,2.9 16.96,3.29L15.12,5.12L18.87,8.87M3,17.25L3,21L6.75,21L17.81,9.93L14.06,6.18L3,17.25Z" style="fill-rule:nonzero;"/>
    </g>
</svg>
